<?xml version="1.0" encoding="UTF-8"?>
<svg id="Layer_2" data-name="Layer 2" xmlns="http://www.w3.org/2000/svg" viewBox="0 0 420.72 120.1">
  <defs>
    <style>
      .cls-1 {
        fill: #fff;
      }

      .cls-2 {
        fill: #000074;
      }

      .cls-3 {
        fill: #05480d;
      }
    </style>
  </defs>
  <g id="Layer_1-2" data-name="Layer 1">
    <g>
      <path class="cls-1" d="M32.17.16c-1.16.47-1.46,1.8-.64,2.77.47.56.5.58,2.19.58s1.89.07,2.66.45c1.65.75,2.62,2.21,2.82,4.21.24,2.26.49,2.56,2.49,2.81,1.5.19,2.04.5,2.6,1.5.82,1.46.43,3.18-.95,4.21-.52.37-.75.39-8.88.45l-8.36.04-.73-.41c-.94-.54-1.42-1.46-1.42-2.67,0-1.87,1.16-3.09,2.94-3.09s2-.36,2.26-.9c.09-.17.22-1.1.3-2.04.15-2.02-.06-2.54-1.18-2.88-1.2-.36-1.96.22-2.34,1.74-.09.39-.28.56-.82.71-1.85.5-3.53,1.98-4.38,3.85-.34.73-.41,1.27-.43,2.6,0,1.46.07,1.81.5,2.73.67,1.35,2.04,2.73,3.33,3.33l1.03.49h9.16c9.09,0,9.16,0,10.06-.41,1.35-.64,2.81-2.11,3.42-3.48.45-.99.52-1.38.5-2.75-.02-1.78-.15-2.23-1.1-3.65-.8-1.22-1.65-1.89-3.22-2.52l-1.22-.49-.39-1.38c-.67-2.36-2.19-4.1-4.51-5.25-1.2-.58-1.46-.64-3.27-.67-1.08-.04-2.17.04-2.43.15h0Z"/>
      <path class="cls-1" d="M71.71,7.46c-1.16.42-1.66.7-2.74,1.55-1.29,1.01-2.58,3.18-2.82,4.73-.11.61-.2.74-.79.92-1.91.63-3.35,1.8-4.18,3.42-.48.98-.53,1.23-.53,2.91s.06,1.95.52,2.87c.59,1.23,2.01,2.61,3.22,3.17.85.4,1.01.4,9.98.4h9.11l1.09-.55c1.36-.68,2.63-2.12,3.22-3.57.37-.94.42-1.33.35-2.63-.09-1.71-.53-2.8-1.69-4.14-.66-.75-2.61-1.9-3.26-1.9s-.63-.39-.81-1.38c-.35-2.02-2.26-4.31-4.51-5.37-1.23-.61-1.55-.68-3.22-.74-1.51-.06-2.02,0-2.93.31h0ZM76.29,11.11c1.79.83,2.6,2.04,2.83,4.21s.53,2.48,2.41,2.72c1.53.18,2.23.61,2.76,1.64.55,1.07.48,2.17-.17,3.07-.99,1.36-.83,1.34-9.92,1.34s-8.08,0-8.69-.42c-1.07-.72-1.38-1.31-1.38-2.61,0-1.86.88-2.78,2.93-3.04.68-.07,1.44-.28,1.67-.44.52-.33.59-.55.81-2.48.13-.96.33-1.58.7-2.19,1.23-2.01,3.9-2.82,6.04-1.8h0Z"/>
      <path class="cls-3" d="M95.6,21.78c-.52.28-.77.63-3.83,4.82-1.4,1.91-2.93,3.99-3.37,4.6-3.57,4.84-3.48,4.67-3.18,5.48.11.31.35.75.57.98l.37.39-1.99.31c-1.09.18-2.98.53-4.2.77-1.86.37-2.28.52-2.65.94-.87.98-.07,2.82,1.2,2.82s1.16-.11,1.86-.26c2.21-.48,5.8-1.05,5.89-.96s-.35.7-.88,1.45c-2.48,3.46-4.88,6.7-5.26,7.18-.61.74-.59,2.01.04,2.61.4.42.59.46,2.02.46s1.56.07,1.56.18c0,.24-2.82,4.1-3.06,4.18-.11.04-.63-.66-1.16-1.55-2.78-4.64-2.8-4.66-3.92-4.66s-1.2.29-3.11,3.46c-2.3,3.81-2.76,4.51-2.91,4.34-.33-.37-2.23-3.02-2.23-3.11s.44-.09.98-.09c1.29,0,2.26-.29,2.61-.79.46-.66.35-1.62-.31-2.54-.33-.44-1.49-2.02-2.58-3.52s-1.99-2.78-1.99-2.89.48-.31,1.07-.48c3.5-.99,4.07-1.21,4.45-1.71.53-.68.39-1.6-.37-2.3-.59-.53-.92-.59-1.77-.33-.29.09-1.73.52-3.18.96-2.15.63-2.67.72-2.8.52-.07-.15-.35-.55-.63-.9l-.48-.64,1.31-.11c1.09-.07,1.38-.18,1.8-.59.87-.87.68-1.62-.83-3.66-.72-.94-2.43-3.29-3.83-5.21-4.09-5.61-4.47-6.11-5.04-6.35-.63-.26-1.23-.11-1.82.44-.37.33-2.13,2.65-3.44,4.53-.2.29-1.36,1.88-2.58,3.52-3.87,5.23-3.87,5.25-3.37,6.33.31.68,1.05,1.01,2.26,1.01s1.01.06,1.01.13c0,.22-2.78,3.92-2.93,3.92s-2.76-4.21-4.42-7.03c-.35-.59-1.12-1.07-1.73-1.07-.96,0-.87-.15-6.63,9.29-1.1,1.82-2.21,3.61-2.43,3.96-1.49,2.34-2.12,3.48-2.12,3.85,0,.66.53,1.27,1.44,1.6.48.18.88.33.92.37.04.02-.42.77-1.01,1.69l-1.07,1.67-3.4,2.26c-3.55,2.37-4.4,2.98-7.45,5.28-4.71,3.55-8.89,7.09-13.69,11.63-2.96,2.78-3.24,3.09-3.29,3.74-.04.39.06.87.22,1.1.35.53,1.27.92,1.84.77.26-.06,1.9-1.45,3.64-3.09,5.37-5.01,10.03-8.91,15.13-12.64,2.58-1.9,2.85-1.99,2.87-1.07,0,.18.2.53.46.77l.44.46h7.9c4.34,0,7.93.04,7.99.09s-.04.46-.18.88c-.42,1.18-.18,2.12.61,2.45.35.15,1.1.26,1.67.26h1.03l-.63.87c-.63.85-1.86,2.54-5.91,8.04-2.47,3.37-2.6,3.64-2.34,4.45.29.88.88,1.2,2.5,1.34l1.38.11-2.41,3.31c-1.34,1.82-2.54,3.42-2.67,3.55-.24.26-.15.37-3.18-3.74-.53-.72-.96-1.34-.96-1.44s.55-.13,1.21-.13c1.09,0,1.25-.06,1.75-.53.98-.98.81-1.53-1.45-4.66-3.48-4.79-7.05-9.57-7.51-10.05-.7-.7-1.6-.79-2.3-.24-.24.18-1.71,2.06-3.24,4.18-1.55,2.12-3.64,4.99-4.66,6.37-2.12,2.89-2.26,3.42-1.31,4.4.5.48.66.53,1.75.53s1.21.04,1.21.09-.37.64-.83,1.33c-.99,1.45-1.07,2.06-.29,2.83s1.77.75,2.52-.07c.64-.68,3.42-4.45,3.74-5.04.33-.64.24-1.47-.24-2.02-.39-.44-.59-.52-1.75-.57-.72-.04-1.31-.13-1.31-.17,0-.06.61-.92,1.34-1.93.72-1.01,1.45-2.01,1.6-2.23,1.09-1.6,2.45-3.26,2.58-3.17.09.06.94,1.16,1.88,2.45s2.1,2.87,2.58,3.52c.5.64.88,1.23.88,1.31s-.59.18-1.31.22c-1.16.06-1.36.13-1.75.57-.28.33-.44.75-.44,1.14,0,.64.2.98,2.48,4.14.55.75,1.29,1.79,1.64,2.3.35.5,1.51,2.12,2.56,3.59,1.07,1.47,1.9,2.72,1.84,2.8-.04.09-.57.15-1.18.15-1.69,0-2.36.48-2.37,1.73,0,.75-.15.53,3.2,5.08.99,1.36,2.06,2.82,2.36,3.22,7.16,9.81,6.9,9.46,7.47,9.68.79.29,1.9-.31,2.26-1.27.24-.63-.11-1.27-2.39-4.36-1.14-1.53-2.63-3.55-3.33-4.51s-1.93-2.67-2.76-3.77c-.81-1.12-1.47-2.08-1.47-2.13,0-.17,26.39-.35,26.56-.18s-.2.72-1.49,2.65c-.94,1.4-.4,2.94,1.1,3.18.39.07.7.15.7.18,0,.11-1.34,2.37-2.61,4.36-.68,1.09-1.25,2.02-1.25,2.06s-.2.39-.46.75c-.98,1.44-.26,3.02,1.36,3.02s1.12-.29,2.23-2.12c.42-.72,1.38-2.28,2.13-3.5.74-1.21,1.53-2.5,1.73-2.85s.53-.9.74-1.2c.74-1.12,1.1-1.93,1.1-2.37,0-1.05-.72-1.77-1.75-1.77s-.59-.31-.04-1.12c.22-.35.96-1.51,1.6-2.6.66-1.1,1.4-2.32,1.66-2.72s.9-1.49,1.45-2.39c1.16-1.91,1.03-1.93,2.37.28.5.81,1.82,2.98,2.94,4.84,1.14,1.84,2.06,3.44,2.06,3.53s-.2.18-.46.18c-.61,0-1.49.46-1.64.83-.2.55-.11,1.47.22,2.04.17.31.72,1.23,1.2,2.02.5.79.99,1.62,1.1,1.82.13.2.37.59.55.87.17.26.31.57.31.66s-.5.85-1.09,1.66c-.61.79-1.16,1.66-1.21,1.91-.29,1.18,1.12,2.37,2.3,1.97.55-.2.87-.55,2.58-2.94.46-.64,1.45-2.01,2.21-3.04s1.97-2.67,2.67-3.64c.72-.98,1.82-2.5,2.48-3.39s1.34-1.8,1.53-2.06c.17-.26.61-.87.96-1.38.83-1.18.85-1.93.11-2.69-.5-.5-.64-.53-1.93-.53s-1.4-.07-1.4-.17.64-1.01,1.44-2.08c1.86-2.54,3.4-4.66,5.6-7.69,1.99-2.72,2.13-3.18,1.36-4.14s-.55-.55-1.75-.61c-.72-.04-1.31-.11-1.31-.17s.72-1.09,1.62-2.28c.88-1.21,1.73-2.39,1.88-2.61.4-.59,1.88-2.52,1.93-2.52s1.71,2.26,3.66,4.93c.31.42.85,1.14,1.16,1.56.33.42.61.83.61.9s-.53.15-1.2.15c-1.05,0-1.25.06-1.79.53-.44.39-.59.68-.59,1.14,0,.68.29,1.18,2.23,3.79,3.99,5.37,6.5,8.87,6.5,9.06s-.44.2-1.18.2c-1.51,0-2.04.2-2.41.94-.55,1.05-.52,1.12,3.94,7.1,1.27,1.69,3,4.07,3.42,4.66,1.73,2.45,4.1,5.65,4.67,6.29.59.64.81.77,1.4.77.87,0,1.75-.87,1.75-1.75s0-.59-5.15-7.62c-1.16-1.58-2.76-3.77-3.53-4.86l-1.44-1.95,1.49-.09c1.4-.09,1.51-.13,2.02-.7.99-1.1,1.12-.85-3.75-7.45-.72-.99-1.49-2.04-1.69-2.34-.2-.28-.92-1.27-1.6-2.21-.7-.94-1.25-1.79-1.25-1.88s3.09-.15,6.88-.15h6.9l.52-.44c.42-.37.52-.59.52-1.31s-.09-.94-.52-1.31l-.52-.44h-11.13l-1.27-1.77c-.72-.98-1.62-2.23-2.02-2.76s-1.09-1.45-1.51-2.04-1.23-1.69-1.79-2.45c-.57-.75-1.03-1.45-1.03-1.56s.5-.88,1.1-1.75c1.29-1.8,1.42-2.15,1.03-2.89-.44-.88-.81-1.07-2.36-1.16l-1.45-.09,1.88-2.58c1.03-1.42,2.5-3.44,3.28-4.47,3.5-4.77,3.7-5.08,3.7-5.71s-.09-.77-.2-.99c-.28-.52-1.27-.88-2.37-.88s-.92-.04-.92-.09.68-1.03,1.53-2.17,2.02-2.74,2.61-3.59c.61-.83,1.2-1.51,1.29-1.51s.44.31.72.68c1.67,2.32,3.04,4.16,3.83,5.21.48.66.88,1.25.88,1.33s-.42.15-.94.15c-2.17,0-3.18,1.42-2.13,2.96,3.11,4.56,5.58,7.8,6.06,7.97.64.22,1.38,0,1.91-.57.64-.7.57-1.44-.24-2.61-.39-.53-.83-1.16-.98-1.38s-.63-.87-1.07-1.45-.74-1.14-.68-1.23c.06-.11.52-.18.99-.18,1.05,0,1.56-.4,1.88-1.45.35-1.18.28-1.33-2.91-5.67-.74-.99-2.3-3.13-3.48-4.75-2.6-3.59-2.74-3.74-3.48-3.88-.63-.11-1.75.31-1.75.66s-.11.18-.26.18c-.24,0-2.5-2.91-2.5-3.22s3.09-.11,6.87-.09c3.75.04,6.99-.02,7.18-.09.4-.17.87-1.03.87-1.64s-.24-.74-.52-1.05l-.53-.59-4.86-.17c-2.67-.09-5.15-.11-5.54-.06-.63.09-.7.06-1.12-.7-.26-.42-1.03-1.55-1.73-2.47-.68-.94-2.61-3.59-4.29-5.89s-3.33-4.49-3.7-4.88c-.72-.75-1.38-.88-2.12-.46h0ZM98.23,28.72c3.7,5.08,4.07,5.6,3.98,5.72-.04.09-.68.15-1.44.15-1.29,0-1.38.04-1.82.57-.64.75-.63,1.58.04,2.43.28.37.66.9.87,1.18s1.51,2.08,2.93,3.99c1.79,2.43,2.5,3.55,2.39,3.72-.09.13-1.12,1.55-2.28,3.13-4.45,6.06-4.42,6-4.42,6.75s.13.81.48,1.14c.42.4.68.46,1.75.46s1.27.07,1.27.18-.61,1.01-1.33,2.01c-4.21,5.72-7.07,9.64-7.31,10.12-.33.61-.09,1.58.48,2.04.39.29.74.37,1.82.37s1.36.07,1.36.18-.77,1.2-1.69,2.47c-.94,1.25-2.28,3.07-3,4.05-.7.98-1.33,1.77-1.38,1.77s-.24-.33-.42-.72c-.17-.37-.57-1.1-.9-1.6-1.2-1.88-3.59-5.76-4.53-7.38l-.55-.94.61-.11c.83-.17,1.51-.74,1.66-1.4.13-.61-.2-1.42-1.44-3.4-.44-.72-1.23-1.99-1.75-2.82-1.09-1.79-1.16-1.4.79-3.99.61-.81,1.25-1.67,1.42-1.93.18-.26.98-1.36,1.8-2.48,1.27-1.75,1.47-2.12,1.47-2.76s-.11-.87-.48-1.21c-.4-.37-.7-.46-2.08-.53l-1.64-.09,1.56-2.12c.85-1.16,2.37-3.28,3.42-4.69,1.03-1.42,2.43-3.33,3.11-4.23,1.12-1.49,1.25-1.75,1.25-2.52,0-1.25-.52-1.62-2.32-1.62s-1.36-.07-1.36-.24.7-1.14,1.53-2.25c.83-1.12,2.12-2.87,2.87-3.9s1.44-1.84,1.51-1.79c.09.04.88,1.09,1.77,2.3h0ZM57.44,33.23c1.16,1.58,2.21,3.04,2.36,3.26s.42.57.61.79c.18.2.28.44.2.5-.06.07-.63.13-1.25.13-1.36,0-2.04.42-2.23,1.36-.13.75.06,1.16,1.73,3.42.72.96,1.45,1.95,1.64,2.21s1.47,2.01,2.85,3.9c1.4,1.9,2.54,3.5,2.54,3.55s-.44.09-.96.09c-2.01,0-2.91.59-2.91,1.9s.31,1.05,1.44,2.58c.77,1.07,2.06,2.82,2.85,3.9l1.44,1.95-1.67,2.72c-.9,1.51-1.66,2.91-1.66,3.11,0,.61.87,1.49,1.67,1.69l.74.2-.4.68c-.77,1.29-2.98,4.91-3.46,5.67-.96,1.55-.9,1.49-1.1,1.18-.09-.15-.98-1.34-1.93-2.65-.98-1.31-1.77-2.45-1.77-2.52s.55-.17,1.21-.2c1.1-.07,1.29-.13,1.75-.66.33-.37.53-.81.53-1.12,0-.55-.06-.64-4.1-6.18-6.18-8.5-5.69-7.91-6.79-7.91s-.85.13-1.36.68l-.63.68-.46-.68c-.61-.88-.59-1.09.15-1.21.9-.17,1.51-.88,1.49-1.77-.02-.55-.35-1.21-1.42-2.93-.77-1.21-1.42-2.34-1.45-2.5-.06-.28.5-1.09,4.03-5.87,1.88-2.52,2.06-2.85,2.08-3.57,0-.63-.11-.88-.48-1.23-.42-.4-.68-.46-1.77-.46s-1.25-.07-1.21-.2c.15-.44,5.23-7.33,5.41-7.33.11-.02,1.14,1.27,2.3,2.85h0ZM39.29,43.18c.18.35,1.53,2.58,2.39,3.94,1.64,2.61,3.09,5.06,3.17,5.36s0,.35-.46.35-.77.18-1.09.44c-.79.68-.7,1.71.28,3.24.42.66.94,1.49,1.12,1.84.2.35.66,1.1,1.01,1.66.37.55.66,1.12.66,1.29s-.66,1.16-1.47,2.25l-1.47,1.99h-7.38c-6.94,0-7.38-.02-7.25-.31.09-.28,1.05-1.88,2.58-4.29,2.85-4.56,3.59-5.89,3.59-6.53s-.92-1.56-1.64-1.56-.57-.09-.57-.2c0-.18,1.56-2.8,4.79-8.04.64-1.03,1.25-1.86,1.36-1.82s.29.22.39.42h0ZM76.95,58.67c.55.88,1.09,1.73,1.18,1.91.53.88,1.27,2.1,2.36,3.9.68,1.1,1.23,2.06,1.23,2.15s-.28.2-.63.26c-1.33.26-1.88,1.44-1.25,2.63.5.96.9,1.66,1.47,2.56.28.42,1.07,1.71,1.75,2.85.7,1.14,1.58,2.61,1.99,3.26.39.63.72,1.23.72,1.33s-4.25.17-10.12.17-10.12-.06-10.12-.15c.02-.07.22-.46.46-.87.26-.4.63-1.03.83-1.38s.61-1.01.9-1.47c3.06-4.88,4.07-6.7,4.07-7.23,0-.77-.7-1.51-1.55-1.67-.75-.15-.79-.29-.33-.99.57-.83,2.56-4.07,4.75-7.69.63-1.03.98-1.45,1.1-1.34.11.09.66.9,1.2,1.79h0ZM52.07,63.17c.63.85,1.82,2.48,2.67,3.64.87,1.16,1.51,2.17,1.47,2.25-.06.07-.59.15-1.2.15-1.31,0-1.71.18-2.12.94-.4.81-.22,1.33,1.21,3.29,1.42,1.91,4.84,6.59,6.48,8.83l1.03,1.44-1.44.07c-1.31.06-1.51.11-2.01.59-1.03.99-.81,1.6,1.8,4.95.52.66,1.49,1.93,2.17,2.83.68.88,1.67,2.19,2.21,2.89s.98,1.42.98,1.58c0,.28-.39.96-1.62,2.8l-.46.7h-25.9l-.83-1.12c-.46-.63-.83-1.21-.83-1.34s.53-.9,1.18-1.77c2.89-3.88,6.7-9.15,6.88-9.52.29-.53.28-1.07-.06-1.71-.33-.63-1.16-.92-2.61-.92s-.98-.06-.98-.11.72-1.1,1.62-2.3c.88-1.21,1.73-2.39,1.88-2.61s.64-.9,1.09-1.51c4.56-6.17,4.33-5.78,4.18-6.64-.18-.96-.87-1.36-2.28-1.36s-1.18-.04-1.09-.35c.11-.42,5.08-7.2,5.28-7.2s.66.68,1.27,1.51h0ZM89.34,83.4c-.07.13-.59.85-1.14,1.6-1.29,1.75-1.44,2.21-1.05,3.02.37.77.92,1.05,2.19,1.05s1.01.06,1.09.11c.06.06-.52.96-1.27,1.97-3.42,4.66-6.04,8.26-6.87,9.42-.81,1.14-.83,1.9-.04,2.69s.64.53,1.93.53,1.4.06,1.4.13-.46.77-1.03,1.53c-.55.75-1.49,2.02-2.06,2.82-1.77,2.41-2.13,2.89-2.28,2.89s-.88-1.1-.88-1.34.17-.13.37-.13c.53,0,1.44-.5,1.66-.9.52-.98.07-1.99-2.93-6.64-.15-.26-.39-.63-.5-.83s-.66-1.12-1.23-2.02c-.57-.92-1.33-2.15-1.69-2.76-.35-.61-1.14-1.9-1.75-2.85-.63-.96-1.2-1.93-1.29-2.15-.39-.94-2.04-1.34-2.76-.7-.18.17-.61.75-.94,1.31s-.7.99-.83.99-.42-.31-.68-.7c-.26-.37-1.18-1.6-2.04-2.71-.87-1.12-1.58-2.08-1.58-2.17s.39-.13.88-.13c1.14,0,2.12-.28,2.52-.74.5-.55.42-1.69-.17-2.47-.26-.35-.48-.72-.48-.83s3.55-.2,11.8-.2,11.76.06,11.65.22h0Z"/>
      <path class="cls-1" d="M10.91,24.65c-2.6.96-4.62,3.28-5.23,5.96-.22.9-.26.94-1.14,1.23-1.79.59-3.29,1.91-4.07,3.57-.57,1.27-.55,4.18.06,5.39.68,1.38,1.75,2.47,3.11,3.13l1.23.61h17.85l1.05-.5c1.38-.64,2.54-1.73,3.2-3.04.48-.98.53-1.23.53-2.91s-.07-2.01-.4-2.71c-.75-1.66-2.52-3.17-4.2-3.63-.74-.18-.75-.22-1.07-1.47-.66-2.58-2.8-4.86-5.34-5.69-1.73-.57-4.01-.55-5.6.04h0ZM15.98,28.26c1.67.83,2.45,2.15,2.71,4.66.17,1.49.59,1.97,1.86,2.13,1.6.2,2.23.44,2.82,1.1.68.77.83,1.31.7,2.43-.11,1.01-.57,1.66-1.53,2.21-.72.4-.77.42-8.69.42s-8.8.02-9.74-1.23c-.72-.92-.81-2.48-.2-3.35.66-.98,1.25-1.31,2.63-1.51.7-.09,1.45-.29,1.69-.44.44-.29.79-1.29.79-2.32,0-3.4,3.85-5.65,6.96-4.1h0Z"/>
      <path class="cls-3" d="M9.59,96.74c-.29.29-1.21,1.45-2.02,2.6-1.67,2.36-1.82,2.93-1.05,3.85.4.46.57.52,1.95.57,1.1.06,1.47.13,1.4.31s-3.28,4.6-8.72,12.04c-.9,1.23-1.14,1.69-1.14,2.23,0,1.45,1.86,2.28,2.85,1.27.37-.39,1.75-2.25,6.75-9.09.59-.81,1.64-2.26,2.36-3.22,3.66-4.97,3.68-5.01,3.22-5.94-.39-.83-.94-1.05-2.48-1.05s-1.29-.04-1.29-.09.26-.48.55-.96c.7-1.1.72-1.77.02-2.47-.74-.72-1.64-.74-2.39-.04h0Z"/>
    </g>
    <g>
      <g>
        <path class="cls-2" d="M172.18,18.87c-7.21,2.63-11.08,8.41-11.18,16.62-.1,8.41,4.73,14.43,12.8,15.91,3.87.76,7.12.33,10.84-1.39,4.54-2.1,6.64-4.2,8.12-8.17,2.58-6.97.86-14.86-4.3-19.87-3.82-3.68-10.89-5.02-16.29-3.1ZM181.45,25.36c2.39,1,3.44,2.01,4.49,4.3,1,2.2,1.24,7.93.38,10.13-1.48,3.96-7.17,6.59-11.61,5.35-2.01-.57-5.25-3.25-6.31-5.25-2.15-4.25.86-12.66,5.3-14.57,1.96-.86,5.64-.81,7.74.05h0Z"/>
        <path class="cls-2" d="M207.62,28.42c-5.25,1.29-8.88,6.11-8.88,11.94-.05,4.87,2.1,8.31,6.5,10.37,4.39,2.1,11.32,1.19,13.85-1.82,1.43-1.67,1.53-2.82.33-3.87-1.15-1.05-2.68-1-5.78.14-3.1,1.19-5.06.76-7.02-1.58-1.1-1.29-1.24-1.82-1.05-4.11.19-2.15.48-2.82,1.77-3.96,1.91-1.72,3.58-1.72,5.64.1,2.72,2.39,5.59,1.58,5.59-1.62s-2.01-4.39-5.16-5.3c-2.53-.76-3.53-.81-5.78-.29h0Z"/>
        <path class="cls-2" d="M230.07,29.62c-2.58,1.24-3.96,3.01-5.21,6.69-.96,2.82-.96,4.2,0,7.5,1,3.49,2.53,5.35,5.54,6.83,7.07,3.53,15.43-.86,16.43-8.6.67-5.68-.76-9.41-4.68-11.99-1.67-1.15-2.58-1.34-5.83-1.48-3.3-.1-4.2.05-6.26,1.05h0ZM237.43,34.25c1.96.72,2.91,2.58,2.91,5.97s-.14,2.82-1.62,4.3-3.34,2.05-5.54.91c-3.34-1.72-2.87-9.51.72-11.03,1.77-.76,1.67-.76,3.53-.14h0Z"/>
        <path class="cls-2" d="M251.94,29.23c-1.48,1-1.34,2.87.33,4.78,1.77,2.01,2.2,5.16,1.48,10.84-.67,5.49.14,7.02,3.77,7.02s2.91-1.39,2.91-6.69.96-9.27,2.39-10.03c.48-.24,1.53-.48,2.34-.48,2.2,0,2.68,1.29,2.68,7.4s.67,7.98,3.44,9.17c4.2,1.72,8.26-2.58,4.44-4.73l-1.43-.81v-5.06c0-6.69-1.24-9.6-4.87-11.51-1.86-.96-5.97-.81-8.41.29-1.37.61-2.64.61-3.82,0-2.1-1.15-3.82-1.19-5.25-.19h0Z"/>
        <path class="cls-2" d="M287.44,28.95c-2.01.62-5.4,4.16-6.31,6.54-1.58,4.06-.19,10.7,2.82,13.57,3.77,3.63,10.75,3.73,15.38.24,1.91-1.48,2.25-3.44.81-4.73-1.19-1.1-2.77-1-4.78.24-2.48,1.53-5.45,1.43-7.12-.19-.72-.72-1.15-1.43-.96-1.62.14-.19,2.91-.43,6.11-.57,5.16-.19,5.92-.33,7.07-1.34,1.05-.91,1.24-1.43,1.19-3.49-.19-5.3-4.49-9.17-10.17-9.08-1.48,0-3.3.24-4.06.43ZM293.8,34.92c.76.38,1.48,1,1.62,1.43.29.62-.33.72-3.96.72s-4.3-.19-4.3-.38c0-.53,1.43-1.82,2.39-2.15,1.29-.48,2.91-.33,4.25.38Z"/>
        <path class="cls-2" d="M313.52,29.09c-2.58.96-4.73,3.01-6.07,5.83-1.15,2.34-1.29,3.06-1.05,5.78.33,4.39,2.29,8.17,5.06,9.7,4.01,2.2,11.37,1.82,14.14-.72,1.29-1.19,1.62-3.87.62-4.87s-2.72-.72-4.2.14c-.67.38-2.44.67-3.96.72-2.39,0-2.96-.19-4.06-1.34l-1.29-1.29,5.54-.24c5.92-.29,7.31-.76,8.84-3.1.96-1.48.72-5.35-.48-7.12-.43-.72-1.67-1.82-2.77-2.53-1.62-1.1-2.58-1.34-5.35-1.43-1.86-.05-4.11.14-4.97.48h0ZM320.83,34.97c.72.53.81.86.43,1.53-.43.62-1.34.86-4.2.96-4.01.14-4.35-.14-2.44-2.05,1.34-1.39,4.63-1.62,6.21-.43Z"/>
      </g>
      <g>
        <path class="cls-2" d="M312.67,70.43c-1.24.76-1.91,3.49-1.96,8.41-.05,3.82-.19,4.49-.81,4.25-1.77-.72-3.49-.81-5.59-.29-3.3.86-5.68,2.77-7.21,5.78-1.1,2.25-1.29,3.2-1.29,6.74s.14,4.3,1.34,6.11c2.72,4.06,8.84,5.54,13.47,3.2l2.29-1.19,1.82.96c2.2,1.1,3.82,1.15,5.68.19,1.96-1,2.39-2.96.96-4.16s-1.43-.86-1.91-.86c-2.01,0-2.15-.91-2.15-15.14s-.1-13.61-.72-14c-.91-.57-2.87-.57-3.92,0ZM309.32,89.35c.91.62,1.05,1.15,1.05,4.06s-.81,5.83-2.15,6.35c-1.86.72-3.96.29-4.97-.96-1.19-1.48-1.39-5.92-.33-7.79,1.24-2.25,4.39-3.1,6.4-1.67Z"/>
        <path class="cls-2" d="M218.18,72.82c-7.26,2.67-11.13,8.65-11.18,17.2-.05,3.15.19,4.06,1.53,6.78,2.58,5.21,6.93,8.17,13.04,8.79,4.06.38,8.6-.91,12.37-3.49,2.15-1.48,2.96-2.44,4.3-5.16,1.58-3.1,1.67-3.63,1.62-7.64-.1-5.59-1.39-9.08-4.59-12.47-2.96-3.15-6.07-4.54-10.84-4.78-2.87-.19-4.2,0-6.26.76h0ZM227.59,79.27c3.82,1.62,5.35,4.39,5.4,9.7,0,6.54-3.34,10.17-9.51,10.27-3.1.05-4.97-.76-7.4-3.3-4.2-4.35-2.15-13.57,3.77-16.81,1.39-.76,5.73-.67,7.74.14h0Z"/>
        <path class="cls-2" d="M279.22,75.15c-.53.57-.81,1.72-.81,3.25,0,2.77-.24,3.15-2.29,4.2-2.2,1.1-2.87,2.72-1.82,4.35.48.72,1.24,1.19,1.91,1.19,1.1,0,1.1.14,1.39,5.73.29,6.83,1.34,9.6,4.16,11.08,3.77,1.96,9.6.43,9.94-2.63.29-2.25-.62-2.82-3.77-2.44-2.72.29-2.82.29-3.3-1-.29-.76-.57-3.39-.62-5.92l-.1-4.59,2.63-.29c3.3-.33,4.68-1.05,5.06-2.63.53-2.01-.91-3.06-4.2-3.06h-2.77v-3.15c0-1.72-.24-3.53-.48-4.06-.67-1.24-3.82-1.24-4.92-.05h0Z"/>
        <path class="cls-2" d="M263.12,82.52c-1.34.67-1.58,1.62-2.29,9.55-.38,4.3-.57,4.82-1.82,6.07-1.34,1.29-2.2,1.62-4.16,1.48-1.39-.1-1.86-2.34-1.82-8.26.05-5.16-.05-5.68-1-6.83-2.2-2.53-7.6-1.86-8.31,1.05-.43,1.62.29,2.72,1.91,2.91l1.24.14v5.21c0,2.87.24,5.78.53,6.54.62,1.62,2.63,3.82,4.35,4.73,2.67,1.39,8.5.33,10.37-1.86.57-.76.81-.67,2.48.86,2.05,1.86,4.54,2.25,5.88.91s.96-1.86-.86-4.49c-1.91-2.77-2.48-6.4-1.96-12.56.29-3.49.24-4.01-.57-4.68-1.29-1.19-2.63-1.43-3.96-.76h0Z"/>
        <path class="cls-2" d="M332.11,82.95c-2.44.86-3.82,2.1-5.21,4.63-1.72,3.15-2.05,6.69-1.05,10.17.96,3.34,2.15,4.82,5.25,6.59,2.96,1.72,7.02,1.96,10.08.53,5.92-2.67,8.65-10.75,5.68-16.67-2.96-5.92-3.25-4.39-5.88-5.3-2.01-.67-6.93-.62-8.88.05h0ZM338.89,88.34c1.39.38,2.53,3.01,2.53,5.97s-.19,2.67-1.62,4.11-3.58,2.1-5.88.72c-1.24-.76-1.58-1.39-1.82-3.1-.43-2.77,0-5.11,1.19-6.64,1.29-1.62,2.72-1.91,5.59-1.05h0Z"/>
        <path class="cls-2" d="M359.62,82.99c-3.63,1.15-6.83,6.54-6.93,11.61-.05,3.34,2.1,7.5,4.92,9.51,1.91,1.34,2.34,1.43,6.16,1.43s6.07-.53,8.6-3.15c2.87-2.96,3.96-10.46,2.05-14.19-1.15-2.2-3.63-4.63-5.45-5.3-1.72-.67-7.21-.57-9.36.1h0ZM365.98,88.1c1.67.62,2.67,2.82,2.67,6.02s-.14,2.82-1.62,4.3-2.05,1.62-3.06,1.62c-5.3,0-6.35-9.17-1.29-11.7,1.72-.81,1.77-.86,3.3-.24h0Z"/>
        <path class="cls-2" d="M380.36,83.57c-1.48,1.43-1.48,1.72-.05,3.44,1.15,1.34,1.19,1.72,1.34,9.41.14,7.26.24,8.07,1.05,8.69.53.38,1.62.67,2.39.67,3.06,0,3.58-1.24,3.25-7.74-.19-4.3-.1-5.49.62-7.07,1.05-2.34,2.34-2.82,3.77-1.48,1.29,1.24,3.25,1.29,4.2.14,3.87-4.35-2.25-9.22-7.93-6.35-1.21.64-2.39.64-3.53,0-2.34-1.19-3.73-1.15-5.11.29h0Z"/>
        <path class="cls-2" d="M406.05,83.14c-5.45,2.01-6.4,8.26-1.72,11.37,1,.67,3.49,1.62,5.49,2.15,4.11,1,4.68,1.29,4.68,2.2s-1.05,1.19-3.39,1.19-4.01-.81-5.4-2.34c-1.19-1.34-2.44-1.29-3.92.24-2.15,2.1-.81,4.73,3.39,6.69,4.59,2.15,11.27,1.19,14.09-2.01,1.19-1.39,1.43-2.05,1.43-4.11s-.19-2.58-1.82-4.2-2.77-2.2-9.03-3.82c-2.05-.53-2.72-1.58-1.29-2.1,1.58-.62,4.39-.29,5.59.67,1.34,1.05,3.68,1.24,4.54.38s.57-1.39.57-2.34c0-1.53-.29-2.05-1.77-3.15-1.53-1.19-2.2-1.34-5.59-1.43-2.53-.1-4.59.14-5.88.62h0Z"/>
      </g>
    </g>
  </g>
</svg>